<svg xmlns="http://www.w3.org/2000/svg" version="1.1" xmlns:xlink="http://www.w3.org/1999/xlink" xmlns:svgjs="http://svgjs.dev/svgjs" width="1500" height="363" viewBox="0 0 1500 363"><g transform="matrix(1,0,0,1,-0.9090909090909918,0.052818614940917996)"><svg viewBox="0 0 396 96" data-background-color="#ffffff" preserveAspectRatio="xMidYMid meet" height="363" width="1500" xmlns="http://www.w3.org/2000/svg" xmlns:xlink="http://www.w3.org/1999/xlink"><g id="tight-bounds" transform="matrix(1,0,0,1,0.2400000000000091,-0.013968559323217278)"><svg viewBox="0 0 395.52 96.02793711864643" height="96.02793711864643" width="395.52"><g><svg viewBox="0 0 664.3777375412722 161.30366000111718" height="96.02793711864643" width="395.52"><g><svg viewBox="0 0 395.52 161.30366000111718" height="161.30366000111718" width="395.52"><g id="textblocktransform"><svg viewBox="0 0 395.52 161.30366000111718" height="161.30366000111718" width="395.52" id="textblock"><g><svg viewBox="0 0 395.52 103.4682794577685" height="103.4682794577685" width="395.52"><g transform="matrix(1,0,0,1,0,0)"><svg width="395.52" viewBox="1.44 -39.04 187.73000000000002 49" height="103.4682794577685" data-palette-color="#ff4136"><g class="wordmark-text-0" data-fill-palette-color="primary" id="text-0"><path d="M10.4-33.25L10.4-33.25Q10.4-32.32 10.05-31.52 9.69-30.71 9.08-30.11 8.47-29.52 7.65-29.16 6.84-28.81 5.91-28.81L5.91-28.81Q4.98-28.81 4.16-29.16 3.34-29.52 2.75-30.11 2.15-30.71 1.79-31.52 1.44-32.32 1.44-33.25L1.44-33.25Q1.44-34.16 1.79-34.97 2.15-35.79 2.75-36.39 3.34-36.99 4.16-37.34 4.98-37.7 5.91-37.7L5.91-37.7Q6.84-37.7 7.65-37.34 8.47-36.99 9.08-36.39 9.69-35.79 10.05-34.97 10.4-34.16 10.4-33.25ZM9.25-26.15L9.25 0 2.54 0 2.54-26.15 9.25-26.15ZM21.04-1.76L21.04 9.96 14.33 9.96 14.33-26.15 15.94-26.15 18.6-23Q19.5-23.85 20.58-24.61 21.65-25.37 22.81-25.92 23.97-26.46 25.22-26.78 26.46-27.1 27.73-27.1L27.73-27.1Q30.49-27.1 32.92-26.11 35.35-25.12 37.17-23.32 38.99-21.51 40.04-18.96 41.09-16.41 41.09-13.31L41.09-13.31Q41.09-10.08 40.04-7.51 38.99-4.93 37.17-3.14 35.35-1.34 32.92-0.39 30.49 0.56 27.73 0.56L27.73 0.56Q26.85 0.56 25.99 0.37 25.12 0.17 24.28-0.16 23.44-0.49 22.62-0.9 21.8-1.32 21.04-1.76L21.04-1.76ZM34.4-13.31L34.4-13.31Q34.4-14.97 33.87-16.28 33.35-17.6 32.44-18.52 31.54-19.43 30.32-19.92 29.1-20.41 27.73-20.41L27.73-20.41Q26.36-20.41 25.16-19.92 23.95-19.43 23.04-18.52 22.14-17.6 21.62-16.28 21.09-14.97 21.09-13.31L21.09-13.31Q21.09-11.72 21.62-10.4 22.14-9.08 23.04-8.15 23.95-7.23 25.16-6.71 26.36-6.2 27.73-6.2L27.73-6.2Q29.1-6.2 30.32-6.71 31.54-7.23 32.44-8.15 33.35-9.08 33.87-10.4 34.4-11.72 34.4-13.31ZM62.93 0L57.88 0Q55.46 0 53.34-0.92 51.22-1.83 49.62-3.43 48.02-5.03 47.1-7.15 46.19-9.28 46.19-11.69L46.19-11.69 46.19-19.46 42.94-19.46 42.94-26.1 46.19-26.1 46.19-36.55 52.83-36.55 52.83-26.1 62.93-26.1 62.93-19.46 52.83-19.46 52.83-11.69Q52.83-10.64 53.22-9.73 53.61-8.81 54.29-8.13 54.98-7.45 55.9-7.04 56.83-6.64 57.88-6.64L57.88-6.64 62.93-6.64 62.93 0ZM80.78 0L74.09 0 64.13-26.15 71.72-26.15 77.43-9.84 83.12-26.15 90.74-26.15 80.78 0Z" fill="#ff4136" data-fill-palette-color="primary"></path><path d="M115.74-19.51L115.74 0 109.07 0 109.07-19.51 105.83-19.51 105.83-26.15 109.07-26.15 109.07-27.39Q109.07-29.81 109.99-31.93 110.9-34.06 112.5-35.63 114.1-37.21 116.23-38.12 118.35-39.04 120.77-39.04L120.77-39.04 125.77-39.04 125.77-32.4 120.77-32.4Q119.69-32.4 118.78-32.02 117.86-31.64 117.19-30.97 116.52-30.3 116.13-29.38 115.74-28.47 115.74-27.39L115.74-27.39 115.74-26.15 123.92-26.15 123.92-19.51 115.74-19.51ZM133.78-36.55L133.78 0 127.06 0 127.06-36.55 133.78-36.55ZM161.75-21.46L149.25-6.4Q149.64-6.27 150.03-6.24 150.42-6.2 150.82-6.2L150.82-6.2Q151.79-6.2 152.7-6.47 153.6-6.74 154.39-7.24 155.19-7.74 155.81-8.46 156.43-9.18 156.82-10.06L156.82-10.06 161.7-5.15Q160.78-3.83 159.57-2.78 158.36-1.73 156.96-1 155.55-0.27 154 0.11 152.45 0.49 150.82 0.49L150.82 0.49Q148.06 0.49 145.63-0.54 143.2-1.56 141.38-3.39 139.56-5.22 138.51-7.75 137.46-10.28 137.46-13.31L137.46-13.31Q137.46-16.41 138.51-18.97 139.56-21.53 141.38-23.34 143.2-25.15 145.63-26.15 148.06-27.15 150.82-27.15L150.82-27.15Q152.45-27.15 154.01-26.76 155.58-26.37 156.98-25.63 158.38-24.9 159.6-23.84 160.83-22.78 161.75-21.46L161.75-21.46ZM144.91-9.84L152.67-20.14Q152.21-20.31 151.76-20.36 151.3-20.41 150.82-20.41L150.82-20.41Q149.45-20.41 148.24-19.91 147.03-19.41 146.14-18.48 145.25-17.55 144.74-16.25 144.22-14.94 144.22-13.31L144.22-13.31Q144.22-12.94 144.26-12.48 144.3-12.01 144.38-11.54 144.47-11.06 144.59-10.62 144.71-10.18 144.91-9.84L144.91-9.84ZM179.6-13.4L189.17 0 181.01 0 175.81-8.01 170.56 0 162.41 0 171.96-13.4 162.41-26.29 170.56-26.29 175.81-18.8 181.01-26.29 189.17-26.29 179.6-13.4Z" fill="#001f3f" data-fill-palette-color="secondary"></path></g></svg></g></svg></g><g transform="matrix(1,0,0,1,163.310208,127.89465699904066)"><svg viewBox="0 0 232.209792 33.40900300207653" height="33.40900300207653" width="232.209792"><g transform="matrix(1,0,0,1,0,0)"><svg width="232.209792" viewBox="2.45 -36.75 337.06 48.5" height="33.40900300207653" data-palette-color="#001f3f"><path d="M2.45-2.15Q4.25-13.25 5.6-22.25 6.95-31.25 6.95-32.15L6.95-32.15Q6.95-33.15 6.48-33.6 6-34.05 4.95-34.05L4.95-34.05 3.05-34.05 3.4-36.4Q7.35-36.4 12.1-36.75L12.1-36.75 12.65-36.05Q11.3-30.45 9.95-23.43 8.6-16.4 7.8-11.1L7.8-11.1 8-11Q10.35-15.95 12.25-18.78 14.15-21.6 16.25-23.3L16.25-23.3Q18.8-23.3 20.38-21.1 21.95-18.9 21.95-15.35L21.95-15.35Q21.95-11.35 20.3-7.68 18.65-4 15.93-1.78 13.2 0.45 10.2 0.45L10.2 0.45Q8.4 0.45 6.38 0.03 4.35-0.4 3-1.1L3-1.1 2.45-2.15ZM15.4-18.6Q14.3-18.6 11.98-14.58 9.65-10.55 7.05-4.1L7.05-4.1Q8.2-3.65 9.7-3.3 11.2-2.95 12.1-2.95L12.1-2.95Q13.4-2.95 14.63-4.38 15.85-5.8 16.6-8.13 17.35-10.45 17.35-13L17.35-13Q17.35-15.25 16.78-16.93 16.2-18.6 15.4-18.6L15.4-18.6ZM41.3-19.15Q41.3-15.95 38.55-13.7 35.8-11.45 29.3-9.35L29.3-9.35Q29.2-6.55 30.1-4.88 31-3.2 32.65-3.2L32.65-3.2Q34.1-3.2 35.52-4.3 36.95-5.4 37.95-7.35L37.95-7.35 38.7-7.25 39.85-5.7Q38.45-2.95 36-1.18 33.55 0.6 31.15 0.6L31.15 0.6Q28.25 0.6 26.55-1.68 24.85-3.95 24.85-7.85L24.85-7.85Q24.85-11.7 26.57-15.3 28.3-18.9 31.05-21.15 33.8-23.4 36.75-23.4L36.75-23.4Q38.9-23.4 40.1-22.28 41.3-21.15 41.3-19.15L41.3-19.15ZM35.1-19.85Q33.25-19.85 31.6-17.53 29.95-15.2 29.45-11.85L29.45-11.85Q33.4-13.1 35.17-14.5 36.95-15.9 36.95-17.8L36.95-17.8Q36.95-19.85 35.1-19.85L35.1-19.85ZM45.1-7.3Q45.1-5 46.32-3.7 47.55-2.4 49.75-2.4L49.75-2.4Q51.05-2.4 52-3.23 52.95-4.05 52.95-5.25L52.95-5.25Q52.95-6.3 52.15-7.23 51.35-8.15 49.75-9.35L49.75-9.35Q47.4-11.2 46.22-12.6 45.05-14 45.05-15.95L45.05-15.95Q45.05-17.95 46.2-19.68 47.35-21.4 49.32-22.4 51.3-23.4 53.55-23.4L53.55-23.4Q55.3-23.4 56.82-22.88 58.35-22.35 59.15-21.4L59.15-21.4Q58.25-18.9 57.15-17L57.15-17 56.35-17Q55.8-18.55 54.72-19.4 53.65-20.25 52.3-20.25L52.3-20.25Q51.15-20.25 50.4-19.55 49.65-18.85 49.65-17.8L49.65-17.8Q49.65-16.5 51.15-15.1L51.15-15.1Q51.95-14.4 53-13.55L53-13.55Q55.15-11.9 56.3-10.48 57.45-9.05 57.45-7.15L57.45-7.15Q57.45-5.15 56.22-3.35 55-1.55 52.92-0.48 50.85 0.6 48.5 0.6L48.5 0.6Q46.05 0.6 44.35-0.18 42.65-0.95 42.2-2.3L42.2-2.3Q42.5-3.5 43.12-5.03 43.75-6.55 44.25-7.3L44.25-7.3 45.1-7.3ZM72.94-7.05L73.59-5.55Q71.29-2.85 69.22-1.13 67.14 0.6 65.99 0.6L65.99 0.6Q64.29 0.6 63.29-0.3 62.29-1.2 62.29-2.8L62.29-2.8Q62.29-3.25 62.34-3.45L62.34-3.45 64.99-19.65 64.69-19.85 61.39-20 61.24-20.25 61.49-22.05 65.39-22.7 66.19-28.6 71.49-30.35 71.84-29.75Q71.64-29.15 71.07-27.03 70.49-24.9 69.94-22.55L69.94-22.55 75.79-22.6 75.99-22.4 75.54-20.05 69.89-20.1 69.34-19.8 66.54-5.6 66.49-5.15Q66.49-3.9 67.64-3.9L67.64-3.9Q68.29-3.9 69.34-4.63 70.39-5.35 72.19-7.1L72.19-7.1 72.94-7.05ZM89.84-3.95Q90.19-3.95 90.81-4.42 91.44-4.9 93.49-6.7L93.49-6.7 94.19-6.65 94.94-5.2Q92.04-2.2 90.19-0.8 88.34 0.6 87.24 0.6L87.24 0.6Q86.29 0.6 85.84 0.1 85.39-0.4 85.39-1.45L85.39-1.45Q86.44-7.85 87.14-12.6 87.84-17.35 87.84-18.1L87.84-18.1Q87.84-19.2 87.39-19.65 86.94-20.1 85.84-20.1L85.84-20.1 83.94-20.1 84.34-22.45Q88.29-22.45 93.04-22.8L93.04-22.8 93.54-22.15Q92.39-18.3 91.29-13.2 90.19-8.1 89.64-4.15L89.64-4.15 89.84-3.95ZM90.89-28.35Q89.69-28.35 89.04-29.1 88.39-29.85 88.39-30.95L88.39-30.95Q88.39-32.55 89.46-33.65 90.54-34.75 92.14-34.75L92.14-34.75Q93.34-34.75 93.99-34 94.64-33.25 94.64-32.15L94.64-32.15Q94.64-30.55 93.54-29.45 92.44-28.35 90.89-28.35L90.89-28.35ZM95.23 9.5Q96.44 9.4 97.01 8.72 97.59 8.05 98.03 6.2L98.03 6.2Q98.59 4 100.19-6.38 101.78-16.75 101.78-18.2L101.78-18.2Q101.78-19.2 101.31-19.65 100.84-20.1 99.73-20.1L99.73-20.1 97.78-20.1 98.19-22.45Q102.19-22.45 106.89-22.8L106.89-22.8 107.44-22.15Q105.53-16.7 104.59-11.35L104.59-11.35 104.84-11.2Q107.28-16.15 109.16-18.95 111.03-21.75 113.03-23.4L113.03-23.4Q115.64-23.4 117.19-21.25 118.73-19.1 118.73-15.55L118.73-15.55Q118.73-11.85 117.09-8.15 115.44-4.45 112.89-2.08 110.34 0.3 107.73 0.3L107.73 0.3 102.94-0.4 101.94 6.55Q101.89 6.85 101.89 7.4L101.89 7.4Q101.89 8.3 102.36 8.65 102.84 9 104.03 9L104.03 9 106.14 9 106.19 9.3 105.78 11.4Q100.19 11.4 94.84 11.75L94.84 11.75 95.23 9.5ZM112.19-18.7Q111.09-18.7 108.73-14.68 106.39-10.65 103.94-4.5L103.94-4.5Q105.14-3.85 106.71-3.45 108.28-3.05 109.39-3.05L109.39-3.05Q110.53-3.05 111.66-4.55 112.78-6.05 113.48-8.43 114.19-10.8 114.19-13.2L114.19-13.2Q114.19-15.35 113.59-17.03 112.98-18.7 112.19-18.7L112.19-18.7ZM134.58-14.7L133.88-11.45 122.23-10.15 121.93-10.65 122.68-13.8 130.88-14.75Q132.43-14.95 133.26-15.08 134.08-15.2 134.28-15.25L134.28-15.25 134.58-14.7ZM149.23-7.05L149.88-5.55Q147.58-2.85 145.5-1.13 143.43 0.6 142.28 0.6L142.28 0.6Q140.58 0.6 139.58-0.3 138.58-1.2 138.58-2.8L138.58-2.8Q138.58-3.25 138.63-3.45L138.63-3.45 141.28-19.65 140.98-19.85 137.68-20 137.53-20.25 137.78-22.05 141.68-22.7 142.48-28.6 147.78-30.35 148.13-29.75Q147.93-29.15 147.35-27.03 146.78-24.9 146.23-22.55L146.23-22.55 152.08-22.6 152.28-22.4 151.83-20.05 146.18-20.1 145.63-19.8 142.83-5.6 142.78-5.15Q142.78-3.9 143.93-3.9L143.93-3.9Q144.58-3.9 145.63-4.63 146.68-5.35 148.48-7.1L148.48-7.1 149.23-7.05ZM157.68 0.55L156.88-0.1Q156.73-4.1 156.2-9.22 155.68-14.35 155.03-18L155.03-18Q154.83-19.1 154.43-19.5 154.03-19.9 153.13-19.9L153.13-19.9Q152.53-19.9 151.78-19.83 151.03-19.75 150.73-19.7L150.73-19.7 150.93-22Q153.53-22.35 155.83-22.68 158.13-23 158.93-23.1L158.93-23.1 159.48-22.65Q160.48-14 160.43-3.75L160.43-3.75 160.98-3.75Q163.93-8.35 165.5-11.83 167.08-15.3 167.08-17.25L167.08-17.25Q167.08-18.8 166.18-19.8 165.28-20.8 164.63-21.1L164.63-21.1 164.88-22.25 170.03-23.4Q170.83-22.85 171.25-21.78 171.68-20.7 171.68-19.35L171.68-19.35Q171.68-16.7 169.15-11.68 166.63-6.65 161.73 0.45L161.73 0.45 157.68 0.55ZM179.57 9.5Q180.77 9.4 181.35 8.72 181.92 8.05 182.37 6.2L182.37 6.2Q182.92 4 184.52-6.38 186.12-16.75 186.12-18.2L186.12-18.2Q186.12-19.2 185.65-19.65 185.17-20.1 184.07-20.1L184.07-20.1 182.12-20.1 182.52-22.45Q186.52-22.45 191.22-22.8L191.22-22.8 191.77-22.15Q189.87-16.7 188.92-11.35L188.92-11.35 189.17-11.2Q191.62-16.15 193.5-18.95 195.37-21.75 197.37-23.4L197.37-23.4Q199.97-23.4 201.52-21.25 203.07-19.1 203.07-15.55L203.07-15.55Q203.07-11.85 201.42-8.15 199.77-4.45 197.22-2.08 194.67 0.3 192.07 0.3L192.07 0.3 187.27-0.4 186.27 6.55Q186.22 6.85 186.22 7.4L186.22 7.4Q186.22 8.3 186.7 8.65 187.17 9 188.37 9L188.37 9 190.47 9 190.52 9.3 190.12 11.4Q184.52 11.4 179.17 11.75L179.17 11.75 179.57 9.5ZM196.52-18.7Q195.42-18.7 193.07-14.68 190.72-10.65 188.27-4.5L188.27-4.5Q189.47-3.85 191.05-3.45 192.62-3.05 193.72-3.05L193.72-3.05Q194.87-3.05 196-4.55 197.12-6.05 197.82-8.43 198.52-10.8 198.52-13.2L198.52-13.2Q198.52-15.35 197.92-17.03 197.32-18.7 196.52-18.7L196.52-18.7ZM207.47-0.15Q207.92-2.65 209.07-9.73 210.22-16.8 210.22-18.05L210.22-18.05Q210.22-19.15 209.75-19.63 209.27-20.1 208.17-20.1L208.17-20.1 206.22-20.1 206.62-22.45Q208.72-22.45 211.57-22.6 214.42-22.75 215.32-22.8L215.32-22.8 215.82-22.1Q215.57-21.25 214.77-18.35 213.97-15.45 213.42-12.55L213.42-12.55 213.62-12.5Q215.72-17.15 218.25-20.1 220.77-23.05 222.77-23.2L222.77-23.2Q223.22-22.95 223.57-22.15 223.92-21.35 223.97-20.5L223.97-20.5Q223.92-19.5 223.69-18.55 223.47-17.6 223.25-16.98 223.02-16.35 222.97-16.2L222.97-16.2 221.87-16.1Q221.57-17.15 220.72-17.15L220.72-17.15Q219.02-17.15 216.8-14.2 214.57-11.25 212.62-6.3L212.62-6.3 211.92-1Q211.82-0.6 210.42-0.08 209.02 0.45 207.97 0.45L207.97 0.45 207.47-0.15ZM229.92 0.6Q227.07 0.6 225.37-1.7 223.67-4 223.67-7.9L223.67-7.9Q223.67-12.05 225.27-15.6 226.87-19.15 229.57-21.28 232.27-23.4 235.47-23.4L235.47-23.4Q238.47-23.4 240.14-21.35 241.82-19.3 241.82-15.55L241.82-15.55Q241.82-11.15 240.24-7.45 238.67-3.75 235.92-1.58 233.17 0.6 229.92 0.6L229.92 0.6ZM231.92-2.65Q234.22-2.65 235.62-5.48 237.02-8.3 237.02-13L237.02-13Q237.02-16.2 236.07-18 235.12-19.8 233.37-19.8L233.37-19.8Q231.12-19.8 229.72-17.18 228.32-14.55 228.32-10.25L228.32-10.25Q228.32-6.75 229.29-4.7 230.27-2.65 231.92-2.65L231.92-2.65ZM249.56 0.55L248.77-0.1Q248.62-4.1 248.09-9.22 247.56-14.35 246.91-18L246.91-18Q246.72-19.1 246.31-19.5 245.91-19.9 245.02-19.9L245.02-19.9Q244.41-19.9 243.66-19.83 242.91-19.75 242.62-19.7L242.62-19.7 242.81-22Q245.41-22.35 247.72-22.68 250.02-23 250.81-23.1L250.81-23.1 251.37-22.65Q252.37-14 252.31-3.75L252.31-3.75 252.87-3.75Q255.81-8.35 257.39-11.83 258.97-15.3 258.97-17.25L258.97-17.25Q258.97-18.8 258.06-19.8 257.17-20.8 256.51-21.1L256.51-21.1 256.76-22.25 261.92-23.4Q262.72-22.85 263.14-21.78 263.56-20.7 263.56-19.35L263.56-19.35Q263.56-16.7 261.04-11.68 258.51-6.65 253.62 0.45L253.62 0.45 249.56 0.55ZM271.61-3.95Q271.96-3.95 272.59-4.42 273.21-4.9 275.26-6.7L275.26-6.7 275.96-6.65 276.71-5.2Q273.81-2.2 271.96-0.8 270.11 0.6 269.01 0.6L269.01 0.6Q268.06 0.6 267.61 0.1 267.16-0.4 267.16-1.45L267.16-1.45Q268.21-7.85 268.91-12.6 269.61-17.35 269.61-18.1L269.61-18.1Q269.61-19.2 269.16-19.65 268.71-20.1 267.61-20.1L267.61-20.1 265.71-20.1 266.11-22.45Q270.06-22.45 274.81-22.8L274.81-22.8 275.31-22.15Q274.16-18.3 273.06-13.2 271.96-8.1 271.41-4.15L271.41-4.15 271.61-3.95ZM272.66-28.35Q271.46-28.35 270.81-29.1 270.16-29.85 270.16-30.95L270.16-30.95Q270.16-32.55 271.24-33.65 272.31-34.75 273.91-34.75L273.91-34.75Q275.11-34.75 275.76-34 276.41-33.25 276.41-32.15L276.41-32.15Q276.41-30.55 275.31-29.45 274.21-28.35 272.66-28.35L272.66-28.35ZM295.51-3.95Q295.86-3.95 296.39-4.35 296.91-4.75 299.21-6.7L299.21-6.7 299.91-6.65 300.66-5.2Q297.31-1.9 295.64-0.65 293.96 0.6 292.91 0.6L292.91 0.6Q290.96 0.6 290.96-1.05L290.96-1.05Q290.96-1.7 291.74-5.28 292.51-8.85 292.96-10.6L292.96-10.6 292.56-10.65Q290.26-6.35 288.14-3.65 286.01-0.95 283.81 0.6L283.81 0.6Q281.56 0.6 280.31-1.25 279.06-3.1 279.06-6.4L279.06-6.4Q279.06-10.4 280.79-14.28 282.51-18.15 285.24-20.63 287.96-23.1 290.76-23.1L290.76-23.1 294.31-22.45 295.61-31.85 295.66-32.4Q295.66-33.25 295.16-33.65 294.66-34.05 293.61-34.05L293.61-34.05 291.71-34.05 292.06-36.4Q294.16-36.4 297.01-36.55 299.86-36.7 300.76-36.75L300.76-36.75 301.31-36.05Q300.96-34.45 299.84-28.8 298.71-23.15 297.39-16.07 296.06-9 295.36-4.15L295.36-4.15 295.51-3.95ZM285.01-4.2Q286.26-4.2 288.89-8.35 291.51-12.5 293.91-18.35L293.91-18.35Q292.86-19 291.56-19.45 290.26-19.9 289.26-19.9L289.26-19.9Q287.91-19.9 286.61-18.32 285.31-16.75 284.51-14.23 283.71-11.7 283.71-9L283.71-9Q283.71-7 284.09-5.6 284.46-4.2 285.01-4.2L285.01-4.2ZM319.46-19.15Q319.46-15.95 316.71-13.7 313.96-11.45 307.46-9.35L307.46-9.35Q307.36-6.55 308.26-4.88 309.16-3.2 310.81-3.2L310.81-3.2Q312.26-3.2 313.68-4.3 315.11-5.4 316.11-7.35L316.11-7.35 316.86-7.25 318.01-5.7Q316.61-2.95 314.16-1.18 311.71 0.6 309.31 0.6L309.31 0.6Q306.41 0.6 304.71-1.68 303.01-3.95 303.01-7.85L303.01-7.85Q303.01-11.7 304.73-15.3 306.46-18.9 309.21-21.15 311.96-23.4 314.91-23.4L314.91-23.4Q317.06-23.4 318.26-22.28 319.46-21.15 319.46-19.15L319.46-19.15ZM313.26-19.85Q311.41-19.85 309.76-17.53 308.11-15.2 307.61-11.85L307.61-11.85Q311.56-13.1 313.33-14.5 315.11-15.9 315.11-17.8L315.11-17.8Q315.11-19.85 313.26-19.85L313.26-19.85ZM323.01-0.15Q323.46-2.65 324.61-9.73 325.76-16.8 325.76-18.05L325.76-18.05Q325.76-19.15 325.28-19.63 324.81-20.1 323.71-20.1L323.71-20.1 321.76-20.1 322.16-22.45Q324.26-22.45 327.11-22.6 329.96-22.75 330.86-22.8L330.86-22.8 331.36-22.1Q331.11-21.25 330.31-18.35 329.51-15.45 328.96-12.55L328.96-12.55 329.16-12.5Q331.26-17.15 333.78-20.1 336.31-23.05 338.31-23.2L338.31-23.2Q338.76-22.95 339.11-22.15 339.46-21.35 339.51-20.5L339.51-20.5Q339.46-19.5 339.23-18.55 339.01-17.6 338.78-16.98 338.56-16.35 338.51-16.2L338.51-16.2 337.41-16.1Q337.11-17.15 336.26-17.15L336.26-17.15Q334.56-17.15 332.33-14.2 330.11-11.25 328.16-6.3L328.16-6.3 327.46-1Q327.36-0.6 325.96-0.08 324.56 0.45 323.51 0.45L323.51 0.45 323.01-0.15Z" opacity="1" transform="matrix(1,0,0,1,0,0)" fill="#001f3f" class="slogan-text-1" data-fill-palette-color="secondary" id="text-1"></path></svg></g></svg></g></svg></g></svg></g><g transform="matrix(1,0,0,1,419.9463775412721,8.826111893486186)"><svg viewBox="0 0 244.43135999999998 143.6514362141448" height="143.6514362141448" width="244.43135999999998"><g><svg xmlns="http://www.w3.org/2000/svg" xmlns:xlink="http://www.w3.org/1999/xlink" version="1.1" x="0" y="0" viewBox="5.842 24.541999999999998 88.20199999999998 51.836" enable-background="new 0 0 100 100" xml:space="preserve" height="143.6514362141448" width="244.43135999999998" class="icon-icon-0" data-fill-palette-color="accent" id="icon-0"><path d="M62.513 76.378H21.616v-8.11h40.896V76.378zM24.732 73.262h34.665v-1.878H24.732V73.262z" fill="#ff4136" data-fill-palette-color="accent"></path><path d="M83.964 30.821l-5.677 1.445v-7.724H5.842v41.286h64.122l2.564 10.078 21.516-5.476L83.964 30.821zM8.958 62.711V27.657h66.213v5.401l-4.321 1.1v-2.812h-57.57v27.677h54.952l0.938 3.688H8.958zM50.361 45.185c0 4.583-3.715 8.296-8.296 8.296-4.582 0-8.296-3.713-8.296-8.296 0-4.582 3.714-8.296 8.296-8.296C46.646 36.888 50.361 40.603 50.361 45.185zM81.712 34.609l8.543 33.571-15.476 3.938-8.543-33.57L81.712 34.609z" fill="#ff4136" data-fill-palette-color="accent"></path><polygon points="40.011,49.681 46.488,45.185 40.011,40.688 " fill="#ff4136" data-fill-palette-color="accent"></polygon><rect x="78.066" y="38.494" transform="matrix(0.2465 0.9691 -0.9691 0.2465 98.8682 -46.9946)" width="3.181" height="3.181" fill="#ff4136" data-fill-palette-color="accent"></rect><rect x="73.568" y="39.638" transform="matrix(0.247 0.969 -0.969 0.247 96.5426 -41.7851)" width="3.182" height="3.182" fill="#ff4136" data-fill-palette-color="accent"></rect><rect x="69.069" y="40.784" transform="matrix(0.2465 0.9692 -0.9692 0.2465 94.3116 -36.55)" width="3.182" height="3.181" fill="#ff4136" data-fill-palette-color="accent"></rect><rect x="79.218" y="43.024" transform="matrix(0.2465 0.9691 -0.9691 0.2465 104.1229 -44.6993)" width="3.181" height="3.181" fill="#ff4136" data-fill-palette-color="accent"></rect><rect x="74.72" y="44.169" transform="matrix(0.2468 0.9691 -0.9691 0.2468 101.8217 -39.4844)" width="3.181" height="3.181" fill="#ff4136" data-fill-palette-color="accent"></rect><rect x="70.222" y="45.313" transform="matrix(0.2466 0.9691 -0.9691 0.2466 99.5599 -34.2565)" width="3.18" height="3.18" fill="#ff4136" data-fill-palette-color="accent"></rect><rect x="80.347" y="47.459" transform="matrix(0.2465 0.9691 -0.9691 0.2465 109.2716 -42.4517)" width="3.181" height="3.181" fill="#ff4136" data-fill-palette-color="accent"></rect><rect x="75.849" y="48.603" transform="matrix(0.2465 0.9691 -0.9691 0.2465 106.9953 -37.2288)" width="3.181" height="3.181" fill="#ff4136" data-fill-palette-color="accent"></rect><rect x="71.35" y="49.749" transform="matrix(0.2462 0.9692 -0.9692 0.2462 104.7396 -31.9966)" width="3.181" height="3.18" fill="#ff4136" data-fill-palette-color="accent"></rect><rect x="81.475" y="51.894" transform="matrix(0.2461 0.9692 -0.9692 0.2461 114.459 -40.1904)" width="3.182" height="3.181" fill="#ff4136" data-fill-palette-color="accent"></rect><rect x="76.978" y="53.038" transform="matrix(0.2469 0.969 -0.969 0.2469 112.1109 -34.9935)" width="3.18" height="3.182" fill="#ff4136" data-fill-palette-color="accent"></rect><rect x="72.479" y="54.183" transform="matrix(0.2466 0.9691 -0.9691 0.2466 109.8566 -29.7614)" width="3.18" height="3.181" fill="#ff4136" data-fill-palette-color="accent"></rect></svg></g></svg></g></svg></g><defs></defs></svg><rect width="395.52" height="96.02793711864643" fill="none" stroke="none" visibility="hidden"></rect></g></svg></g></svg>